<?xml version="1.0" encoding="UTF-8" standalone="no"?>
<!DOCTYPE svg PUBLIC "-//W3C//DTD SVG 1.1//EN" "http://www.w3.org/Graphics/SVG/1.1/DTD/svg11.dtd">
<svg version="1.1" xmlns="http://www.w3.org/2000/svg" xmlns:xlink="http://www.w3.org/1999/xlink" preserveAspectRatio="xMidYMid meet" viewBox="101.47582848319277 0.19598527140990618 97.22651146216893 150"><defs><path d="M150.1 0.2C123.25 0.2 101.48 21.97 101.48 48.82C101.48 69.91 114.91 87.85 133.69 94.59C124.51 100.15 118.37 110.25 118.37 121.74C118.37 133.02 124.44 143.53 134.22 149.2C137.77 151.25 142.31 150.04 144.38 146.49C146.43 142.94 145.22 138.4 141.67 136.33C136.45 133.32 133.23 127.73 133.23 121.72C133.23 112.42 140.8 104.85 150.12 104.85C159.42 104.85 166.99 112.42 166.99 121.72C166.99 127.71 163.75 133.31 158.54 136.33C155 138.38 153.79 142.93 155.84 146.49C157.21 148.86 159.7 150.2 162.27 150.2C163.53 150.2 164.81 149.88 165.99 149.2C175.77 143.53 181.85 133 181.85 121.74C181.85 110.25 175.7 100.17 166.53 94.59C185.29 87.85 198.7 69.91 198.7 48.82C198.7 21.97 176.95 0.2 150.1 0.2ZM162.25 77.27C159.68 77.27 157.19 75.94 155.82 73.57C153.77 70.02 154.98 65.48 158.53 63.41C163.73 60.38 166.97 54.79 166.97 48.8C166.97 39.5 159.4 31.93 150.1 31.93C140.78 31.93 133.21 39.5 133.21 48.8C133.21 54.79 136.45 60.38 141.65 63.41C145.2 65.46 146.41 70.02 144.36 73.57C142.31 77.11 137.75 78.32 134.21 76.27C124.42 70.61 118.35 60.08 118.35 48.82C118.35 31.32 132.58 17.09 150.08 17.09C167.58 17.09 181.81 31.32 181.81 48.82C181.83 60.1 175.75 70.61 165.97 76.27C164.8 76.95 163.51 77.27 162.25 77.27Z" id="Ipr3JrHSDs"></path></defs><g visibility="inherit"><g visibility="inherit"><use xlink:href="#Ipr3JrHSDs" opacity="1" fill="#ffffff" fill-opacity="1"></use><g><use xlink:href="#Ipr3JrHSDs" opacity="1" fill-opacity="0" stroke="#000000" stroke-width="1" stroke-opacity="0"></use></g></g></g></svg>